<svg width="980" height="192" viewBox="0 0 980 192" fill="none" xmlns="http://www.w3.org/2000/svg">
<path d="M235.896 69.76H243.32C246.648 69.76 249.848 69.7173 252.92 69.632C255.992 69.5467 258.637 69.4613 260.856 69.376L260.216 71.936C257.315 72.0213 255.053 72.3627 253.432 72.96C251.811 73.472 250.531 74.496 249.592 76.032C248.739 77.4827 247.885 79.7867 247.032 82.944L230.136 146.432C229.368 149.504 229.027 151.808 229.112 153.344C229.283 154.88 230.051 155.904 231.416 156.416C232.781 156.928 234.872 157.269 237.688 157.44L237.176 160C234.957 159.829 232.312 159.744 229.24 159.744C226.253 159.659 223.096 159.616 219.768 159.616C216.184 159.616 212.771 159.659 209.528 159.744C206.371 159.744 203.811 159.829 201.848 160L202.36 157.44C205.347 157.269 207.608 156.928 209.144 156.416C210.765 155.904 212.045 154.88 212.984 153.344C213.923 151.808 214.776 149.504 215.544 146.432L234.104 77.44L180.984 160.64H178.168L168.952 78.336L151.416 144.64C150.733 147.541 150.392 149.931 150.392 151.808C150.477 153.685 151.288 155.051 152.824 155.904C154.445 156.757 156.963 157.269 160.376 157.44L159.736 160C158.797 159.915 157.517 159.872 155.896 159.872C154.36 159.787 152.739 159.744 151.032 159.744C149.411 159.659 147.875 159.616 146.424 159.616C144.205 159.616 141.987 159.659 139.768 159.744C137.549 159.744 135.715 159.829 134.264 160L134.904 157.44C137.891 157.269 140.195 156.757 141.816 155.904C143.523 155.051 144.888 153.685 145.912 151.808C146.936 149.931 147.789 147.541 148.472 144.64L164.984 82.944C165.837 79.7867 166.179 77.4827 166.008 76.032C165.837 74.496 165.069 73.472 163.704 72.96C162.424 72.3627 160.333 72.0213 157.432 71.936L158.072 69.376C159.693 69.4613 161.656 69.5467 163.96 69.632C166.349 69.7173 168.867 69.76 171.512 69.76C173.56 69.76 175.608 69.7173 177.656 69.632C179.704 69.5467 181.453 69.4613 182.904 69.376L190.072 141.824L235.896 69.76ZM278.749 115.712L279.517 113.152H302.685L302.045 115.712H278.749ZM291.933 113.152C294.664 113.152 296.925 112.64 298.717 111.616C300.509 110.507 302.002 109.099 303.197 107.392C304.477 105.685 305.544 103.893 306.397 102.016C307.25 100.139 308.018 98.3893 308.701 96.768H311.645C310.109 101.291 309.042 104.832 308.445 107.392C307.848 109.867 307.25 112.213 306.653 114.432C306.226 115.883 305.842 117.376 305.501 118.912C305.16 120.448 304.733 122.24 304.221 124.288C303.794 126.336 303.282 128.939 302.685 132.096H299.741C299.912 130.133 300.04 128.213 300.125 126.336C300.296 124.373 300.168 122.624 299.741 121.088C299.314 119.467 298.418 118.187 297.053 117.248C295.773 116.224 293.768 115.712 291.037 115.712L291.933 113.152ZM325.981 92.416C326.664 87.3813 326.834 83.4133 326.493 80.512C326.152 77.5253 324.957 75.4347 322.909 74.24C320.946 72.96 317.789 72.32 313.437 72.32H305.885C303.069 72.32 300.85 72.576 299.229 73.088C297.693 73.5147 296.456 74.496 295.517 76.032C294.578 77.4827 293.682 79.7867 292.829 82.944L275.805 146.432C274.952 149.504 274.568 151.808 274.653 153.344C274.824 154.88 275.592 155.904 276.957 156.416C278.322 156.843 280.456 157.056 283.357 157.056H291.165C296.285 157.056 300.424 156.331 303.581 154.88C306.738 153.429 309.426 151.083 311.645 147.84C313.949 144.512 316.168 140.032 318.301 134.4H321.245C320.818 135.509 320.349 136.875 319.837 138.496C319.325 140.117 318.856 141.824 318.429 143.616C318.002 145.237 317.448 147.584 316.765 150.656C316.082 153.643 315.528 156.757 315.101 160C310.749 159.829 305.842 159.744 300.381 159.744C294.92 159.659 290.056 159.616 285.789 159.616C283.826 159.616 281.309 159.616 278.237 159.616C275.25 159.616 271.965 159.659 268.381 159.744C264.797 159.744 261.17 159.787 257.501 159.872C253.917 159.872 250.504 159.915 247.261 160L247.901 157.44C250.802 157.269 253.064 156.928 254.685 156.416C256.306 155.904 257.544 154.88 258.397 153.344C259.336 151.808 260.232 149.504 261.085 146.432L278.109 82.944C278.962 79.7867 279.304 77.4827 279.133 76.032C279.048 74.496 278.322 73.472 276.957 72.96C275.677 72.3627 273.586 72.0213 270.685 71.936L271.325 69.376C274.568 69.4613 277.981 69.5467 281.565 69.632C285.234 69.632 288.861 69.6747 292.445 69.76C296.029 69.76 299.314 69.76 302.301 69.76C305.373 69.76 307.89 69.76 309.853 69.76C313.693 69.76 317.96 69.76 322.653 69.76C327.432 69.6747 331.741 69.5467 335.581 69.376C334.472 72.3627 333.49 75.2213 332.637 77.952C331.784 80.5973 331.144 82.7733 330.717 84.48C330.29 86.016 329.906 87.5093 329.565 88.96C329.309 90.3253 329.096 91.4773 328.925 92.416H325.981ZM423.163 98.432C423.163 104.576 422.267 110.635 420.475 116.608C418.683 122.581 415.995 128.171 412.411 133.376C408.912 138.581 404.646 143.189 399.611 147.2C394.662 151.125 388.987 154.24 382.587 156.544C376.272 158.848 369.318 160 361.723 160C360.443 160 358.736 159.957 356.603 159.872C354.555 159.787 352.379 159.744 350.075 159.744C347.771 159.659 345.51 159.616 343.291 159.616C341.328 159.616 339.28 159.659 337.147 159.744C335.099 159.744 333.136 159.787 331.259 159.872C329.467 159.872 327.931 159.915 326.651 160L327.035 157.44C329.766 157.269 331.899 156.928 333.435 156.416C335.056 155.904 336.336 154.88 337.275 153.344C338.214 151.808 339.067 149.504 339.835 146.432L356.603 82.944C357.371 80.2133 357.755 78.08 357.755 76.544C357.755 74.9227 357.115 73.7707 355.835 73.088C354.555 72.4053 352.336 72.0213 349.179 71.936L349.563 69.376C350.928 69.4613 352.55 69.5467 354.427 69.632C356.39 69.7173 358.48 69.76 360.699 69.76C362.918 69.76 365.008 69.76 366.971 69.76C368.848 69.6747 370.982 69.632 373.371 69.632C375.76 69.5467 378.107 69.504 380.411 69.504C382.715 69.4187 384.678 69.376 386.299 69.376C398.502 69.376 407.675 71.8507 413.819 76.8C420.048 81.664 423.163 88.8747 423.163 98.432ZM360.699 157.696C366.928 157.696 372.518 156.587 377.467 154.368C382.502 152.064 386.939 148.907 390.779 144.896C394.619 140.8 397.819 136.107 400.379 130.816C402.939 125.525 404.859 119.851 406.139 113.792C407.419 107.648 408.059 101.376 408.059 94.976C408.059 87.296 406.096 81.4933 402.171 77.568C398.246 73.6427 391.846 71.68 382.971 71.68C380.496 71.68 378.576 71.9787 377.211 72.576C375.846 73.1733 374.736 74.24 373.883 75.776C373.03 77.312 372.176 79.616 371.323 82.688L354.555 146.688C353.872 149.248 353.488 151.381 353.403 153.088C353.318 154.709 353.787 155.904 354.811 156.672C355.92 157.355 357.883 157.696 360.699 157.696ZM449.305 146.432C448.537 149.504 448.196 151.808 448.281 153.344C448.366 154.88 449.092 155.904 450.457 156.416C451.822 156.928 453.956 157.269 456.857 157.44L456.345 160C454.212 159.829 451.524 159.744 448.281 159.744C445.124 159.659 441.881 159.616 438.553 159.616C434.969 159.616 431.641 159.659 428.569 159.744C425.582 159.744 423.065 159.829 421.017 160L421.657 157.44C424.473 157.269 426.649 156.928 428.185 156.416C429.806 155.904 431.086 154.88 432.025 153.344C432.964 151.808 433.817 149.504 434.585 146.432L451.481 82.944C452.334 79.7867 452.676 77.4827 452.505 76.032C452.334 74.496 451.566 73.472 450.201 72.96C448.921 72.3627 446.83 72.0213 443.929 71.936L444.569 69.376C446.446 69.4613 448.921 69.5467 451.993 69.632C455.15 69.7173 458.521 69.76 462.105 69.76C465.433 69.76 468.676 69.7173 471.833 69.632C475.076 69.5467 477.806 69.4613 480.025 69.376L479.385 71.936C476.484 72.0213 474.222 72.3627 472.601 72.96C470.98 73.472 469.7 74.496 468.761 76.032C467.908 77.4827 467.054 79.7867 466.201 82.944L449.305 146.432ZM570.191 53.632C572.58 53.632 574.372 54.3573 575.567 55.808C576.762 57.1733 577.359 58.8373 577.359 60.8C577.359 63.0187 576.719 64.9813 575.439 66.688C574.159 68.3947 572.495 69.8027 570.447 70.912C568.143 72.2773 565.242 73.3013 561.743 73.984C558.33 74.6667 554.362 75.008 549.839 75.008C546.34 75.008 542.799 74.8373 539.215 74.496C535.716 74.1547 532.175 73.728 528.591 73.216C525.092 72.704 521.594 72.2773 518.095 71.936C514.682 71.5947 511.396 71.424 508.239 71.424C505.508 71.424 502.778 71.552 500.047 71.808C497.316 72.064 495.226 72.6613 493.775 73.6C494.97 74.368 495.951 75.5627 496.719 77.184C497.487 78.72 497.871 80.3413 497.871 82.048C497.871 84.096 497.231 86.016 495.951 87.808C494.671 89.6 492.794 90.496 490.319 90.496C488.1 90.496 486.394 89.7707 485.199 88.32C484.09 86.8693 483.535 85.0773 483.535 82.944C483.535 81.0667 484.004 79.1467 484.943 77.184C485.967 75.136 487.93 73.4293 490.831 72.064C492.794 71.1253 494.884 70.4427 497.103 70.016C499.407 69.5893 501.54 69.3333 503.503 69.248C505.466 69.1627 506.959 69.12 507.983 69.12C513.103 69.12 518.01 69.4187 522.703 70.016C527.396 70.528 532.047 71.0827 536.655 71.68C541.263 72.192 545.956 72.448 550.735 72.448C554.49 72.448 557.647 72.2347 560.207 71.808C562.767 71.3813 565.071 70.656 567.119 69.632L566.863 70.528C565.924 69.6747 564.986 68.48 564.047 66.944C563.108 65.408 562.639 63.7013 562.639 61.824C562.639 59.6907 563.279 57.8133 564.559 56.192C565.924 54.4853 567.802 53.632 570.191 53.632ZM524.623 71.68C524.623 71.68 525.092 71.7227 526.031 71.808C526.97 71.8933 528.122 72.0213 529.487 72.192C530.938 72.3627 532.388 72.5333 533.839 72.704C535.29 72.8747 536.484 73.0027 537.423 73.088C538.362 73.1733 538.831 73.216 538.831 73.216L519.759 145.152C518.906 148.309 518.564 150.784 518.735 152.576C518.906 154.283 519.802 155.52 521.423 156.288C523.13 156.971 525.775 157.355 529.359 157.44L528.847 160C526.458 159.829 523.386 159.744 519.631 159.744C515.962 159.659 512.164 159.616 508.239 159.616C504.314 159.616 500.516 159.659 496.847 159.744C493.263 159.744 490.404 159.829 488.271 160L488.783 157.44C492.367 157.269 495.14 156.843 497.103 156.16C499.151 155.392 500.73 154.155 501.839 152.448C503.034 150.656 504.1 148.224 505.039 145.152L524.623 71.68ZM583.249 115.712L584.017 113.152H607.185L606.545 115.712H583.249ZM596.433 113.152C599.164 113.152 601.425 112.64 603.217 111.616C605.009 110.507 606.502 109.099 607.697 107.392C608.977 105.685 610.044 103.893 610.897 102.016C611.75 100.139 612.518 98.3893 613.201 96.768H616.145C614.609 101.291 613.542 104.832 612.945 107.392C612.348 109.867 611.75 112.213 611.153 114.432C610.726 115.883 610.342 117.376 610.001 118.912C609.66 120.448 609.233 122.24 608.721 124.288C608.294 126.336 607.782 128.939 607.185 132.096H604.241C604.412 130.133 604.54 128.213 604.625 126.336C604.796 124.373 604.668 122.624 604.241 121.088C603.814 119.467 602.918 118.187 601.553 117.248C600.273 116.224 598.268 115.712 595.537 115.712L596.433 113.152ZM630.481 92.416C631.164 87.3813 631.334 83.4133 630.993 80.512C630.652 77.5253 629.457 75.4347 627.409 74.24C625.446 72.96 622.289 72.32 617.937 72.32H610.385C607.569 72.32 605.35 72.576 603.729 73.088C602.193 73.5147 600.956 74.496 600.017 76.032C599.078 77.4827 598.182 79.7867 597.329 82.944L580.305 146.432C579.452 149.504 579.068 151.808 579.153 153.344C579.324 154.88 580.092 155.904 581.457 156.416C582.822 156.843 584.956 157.056 587.857 157.056H595.665C600.785 157.056 604.924 156.331 608.081 154.88C611.238 153.429 613.926 151.083 616.145 147.84C618.449 144.512 620.668 140.032 622.801 134.4H625.745C625.318 135.509 624.849 136.875 624.337 138.496C623.825 140.117 623.356 141.824 622.929 143.616C622.502 145.237 621.948 147.584 621.265 150.656C620.582 153.643 620.028 156.757 619.601 160C615.249 159.829 610.342 159.744 604.881 159.744C599.42 159.659 594.556 159.616 590.289 159.616C588.326 159.616 585.809 159.616 582.737 159.616C579.75 159.616 576.465 159.659 572.881 159.744C569.297 159.744 565.67 159.787 562.001 159.872C558.417 159.872 555.004 159.915 551.761 160L552.401 157.44C555.302 157.269 557.564 156.928 559.185 156.416C560.806 155.904 562.044 154.88 562.897 153.344C563.836 151.808 564.732 149.504 565.585 146.432L582.609 82.944C583.462 79.7867 583.804 77.4827 583.633 76.032C583.548 74.496 582.822 73.472 581.457 72.96C580.177 72.3627 578.086 72.0213 575.185 71.936L575.825 69.376C579.068 69.4613 582.481 69.5467 586.065 69.632C589.734 69.632 593.361 69.6747 596.945 69.76C600.529 69.76 603.814 69.76 606.801 69.76C609.873 69.76 612.39 69.76 614.353 69.76C618.193 69.76 622.46 69.76 627.153 69.76C631.932 69.6747 636.241 69.5467 640.081 69.376C638.972 72.3627 637.99 75.2213 637.137 77.952C636.284 80.5973 635.644 82.7733 635.217 84.48C634.79 86.016 634.406 87.5093 634.065 88.96C633.809 90.3253 633.596 91.4773 633.425 92.416H630.481ZM666.223 114.688C670.148 114.859 673.263 115.072 675.567 115.328C677.871 115.499 679.748 115.669 681.199 115.84C682.735 115.925 684.186 116.096 685.551 116.352C688.452 116.779 691.012 117.333 693.231 118.016C695.535 118.699 697.412 119.68 698.863 120.96C700.399 122.24 701.508 123.904 702.191 125.952C702.874 127.915 703.087 130.432 702.831 133.504L701.551 146.56C701.295 149.205 701.423 151.552 701.935 153.6C702.447 155.648 703.642 156.629 705.519 156.544C707.14 156.459 708.548 155.563 709.743 153.856C710.938 152.064 712.09 149.547 713.199 146.304L713.839 144.512H716.783L716.271 146.176C714.82 151.381 712.772 155.307 710.127 157.952C707.567 160.512 704.068 161.792 699.631 161.792C694.852 161.792 691.396 160.512 689.263 157.952C687.215 155.307 686.362 152.192 686.703 148.608L688.111 134.272C688.452 130.091 688.154 126.72 687.215 124.16C686.362 121.6 684.314 119.765 681.071 118.656C677.828 117.461 672.794 116.864 665.967 116.864L666.223 114.688ZM664.687 116.864L665.327 114.304H670.575C676.036 114.304 680.73 113.664 684.655 112.384C688.666 111.019 691.908 109.056 694.383 106.496C696.943 103.936 698.82 100.949 700.015 97.536C701.295 94.1227 701.935 90.368 701.935 86.272C701.935 81.408 700.74 77.824 698.351 75.52C696.047 73.1307 692.292 71.936 687.087 71.936C683.759 71.936 681.37 72.6187 679.919 73.984C678.554 75.3493 677.316 78.0373 676.207 82.048L659.055 146.432C658.372 149.077 657.988 151.211 657.903 152.832C657.818 154.368 658.415 155.52 659.695 156.288C661.06 156.971 663.364 157.355 666.607 157.44L666.095 160C663.962 159.829 661.359 159.744 658.287 159.744C655.3 159.659 652.143 159.616 648.815 159.616C645.231 159.616 641.818 159.659 638.575 159.744C635.332 159.744 632.73 159.829 630.767 160L631.279 157.44C634.18 157.269 636.442 156.928 638.063 156.416C639.684 155.904 640.964 154.88 641.903 153.344C642.842 151.808 643.695 149.504 644.463 146.432L661.359 82.944C662.127 80.2133 662.468 78.08 662.383 76.544C662.383 75.008 661.743 73.856 660.463 73.088C659.183 72.32 656.964 71.936 653.807 71.936L654.447 69.376C655.727 69.4613 657.306 69.5467 659.183 69.632C661.06 69.632 663.066 69.6747 665.199 69.76C667.418 69.76 669.466 69.76 671.343 69.76C674.756 69.76 677.999 69.7173 681.071 69.632C684.143 69.5467 687.215 69.504 690.287 69.504C699.503 69.504 706.33 71.0827 710.767 74.24C715.204 77.3973 717.423 81.792 717.423 87.424C717.423 93.2267 715.418 98.304 711.407 102.656C707.396 107.008 701.807 110.464 694.639 113.024C687.471 115.499 679.194 116.736 669.807 116.736L664.687 116.864ZM731.719 140.032C728.732 144.213 727.026 147.584 726.599 150.144C726.172 152.619 726.812 154.453 728.519 155.648C730.226 156.757 732.828 157.355 736.327 157.44L735.687 160C732.871 159.829 730.183 159.744 727.623 159.744C725.063 159.659 722.631 159.616 720.327 159.616C718.279 159.616 716.572 159.659 715.207 159.744C713.756 159.744 712.348 159.829 710.983 160L711.623 157.44C712.903 157.099 714.226 156.501 715.591 155.648C716.871 154.795 718.322 153.557 719.943 151.936C721.479 150.315 723.143 148.181 724.935 145.536L779.591 68.736C780.188 68.736 780.743 68.736 781.255 68.736C781.852 68.736 782.45 68.736 783.047 68.736L788.167 149.248C788.423 152.32 789.191 154.453 790.471 155.648C791.836 156.757 793.159 157.355 794.439 157.44L793.927 160C792.05 159.829 789.66 159.744 786.759 159.744C783.858 159.659 781.084 159.616 778.439 159.616C775.111 159.616 771.954 159.659 768.967 159.744C765.98 159.744 763.591 159.829 761.799 160L762.311 157.44C766.407 157.269 769.308 156.544 771.015 155.264C772.722 153.899 773.49 151.04 773.319 146.688L769.991 84.864L772.039 83.2L731.719 140.032ZM742.599 123.136H779.975L778.951 125.696H740.295L742.599 123.136ZM868.899 160.64L838.179 80.768C838.179 80.768 838.051 80.896 837.795 81.152C837.624 81.3227 837.411 81.5787 837.155 81.92C836.899 82.176 836.643 82.432 836.387 82.688C836.216 82.8587 836.131 82.944 836.131 82.944C836.814 79.7867 837.027 77.4827 836.771 76.032C836.6 74.496 835.747 73.472 834.211 72.96C832.76 72.3627 830.371 72.0213 827.043 71.936L827.683 69.376C829.048 69.4613 830.712 69.5467 832.675 69.632C834.723 69.7173 836.856 69.76 839.075 69.76C843.086 69.76 846.542 69.632 849.443 69.376L874.787 138.112C874.787 138.112 874.702 138.667 874.531 139.776C874.36 140.8 874.147 142.165 873.891 143.872C873.72 145.579 873.507 147.413 873.251 149.376C872.995 151.339 872.739 153.173 872.483 154.88C872.312 156.501 872.142 157.867 871.971 158.976C871.8 160.085 871.715 160.64 871.715 160.64H868.899ZM907.939 66.048C905.635 66.1333 903.63 66.7733 901.923 67.968C900.216 69.1627 898.723 70.7413 897.443 72.704C893.518 78.5067 889.507 88.704 885.411 103.296C881.315 117.888 876.75 137.003 871.715 160.64L869.923 157.056C871.203 151.339 872.568 145.195 874.019 138.624C875.47 131.968 877.006 125.312 878.627 118.656C880.334 112 882.04 105.643 883.747 99.584C885.539 93.5253 887.374 88.1067 889.251 83.328C891.214 78.464 893.176 74.5813 895.139 71.68C896.76 69.376 898.68 67.456 900.899 65.92C903.118 64.2987 905.806 63.488 908.963 63.488C912.206 63.488 914.51 64.2987 915.875 65.92C917.326 67.456 918.051 69.2907 918.051 71.424C918.051 73.984 917.24 76.3307 915.619 78.464C914.083 80.512 911.95 81.536 909.219 81.536C907 81.536 905.379 80.9387 904.355 79.744C903.416 78.464 902.947 77.0987 902.947 75.648C902.947 73.6853 903.544 71.8933 904.739 70.272C905.934 68.5653 907.342 67.2427 908.963 66.304C908.792 66.2187 908.622 66.176 908.451 66.176C908.366 66.0907 908.195 66.048 907.939 66.048ZM804.387 166.912C806.691 166.827 808.739 166.187 810.531 164.992C812.323 163.797 813.859 162.176 815.139 160.128C817.614 156.203 820.088 150.059 822.563 141.696C825.123 133.333 827.683 123.221 830.243 111.36C832.888 99.4987 835.534 86.4853 838.179 72.32L840.355 75.008C838.99 82.0053 837.539 89.1307 836.003 96.384C834.552 103.552 833.059 110.592 831.523 117.504C829.987 124.331 828.408 130.688 826.787 136.576C825.166 142.464 823.544 147.584 821.923 151.936C820.302 156.203 818.723 159.36 817.187 161.408C815.651 163.456 813.816 165.291 811.683 166.912C809.635 168.619 806.904 169.472 803.491 169.472C800.163 169.472 797.816 168.661 796.451 167.04C795 165.504 794.275 163.627 794.275 161.408C794.275 158.848 795.086 156.544 796.707 154.496C798.328 152.448 800.504 151.424 803.235 151.424C805.539 151.424 807.118 152.064 807.971 153.344C808.91 154.539 809.379 155.861 809.379 157.312C809.379 159.275 808.782 161.067 807.587 162.688C806.478 164.395 805.112 165.717 803.491 166.656C803.576 166.741 803.704 166.784 803.875 166.784C804.046 166.869 804.216 166.912 804.387 166.912ZM906.969 140.032C903.982 144.213 902.276 147.584 901.849 150.144C901.422 152.619 902.062 154.453 903.769 155.648C905.476 156.757 908.078 157.355 911.577 157.44L910.937 160C908.121 159.829 905.433 159.744 902.873 159.744C900.313 159.659 897.881 159.616 895.577 159.616C893.529 159.616 891.822 159.659 890.457 159.744C889.006 159.744 887.598 159.829 886.233 160L886.873 157.44C888.153 157.099 889.476 156.501 890.841 155.648C892.121 154.795 893.572 153.557 895.193 151.936C896.729 150.315 898.393 148.181 900.185 145.536L954.841 68.736C955.438 68.736 955.993 68.736 956.505 68.736C957.102 68.736 957.7 68.736 958.297 68.736L963.417 149.248C963.673 152.32 964.441 154.453 965.721 155.648C967.086 156.757 968.409 157.355 969.689 157.44L969.177 160C967.3 159.829 964.91 159.744 962.009 159.744C959.108 159.659 956.334 159.616 953.689 159.616C950.361 159.616 947.204 159.659 944.217 159.744C941.23 159.744 938.841 159.829 937.049 160L937.561 157.44C941.657 157.269 944.558 156.544 946.265 155.264C947.972 153.899 948.74 151.04 948.569 146.688L945.241 84.864L947.289 83.2L906.969 140.032ZM917.849 123.136H955.225L954.201 125.696H915.545L917.849 123.136Z" fill="#FFFDF0"/>
<path d="M102.4 160.513L152 0.513182L70.4 160.513L102.4 160.513Z" fill="#B52323"/>
<path d="M66.2001 160.513L149.5 0.5L34.2001 160.513L66.2001 160.513Z" fill="#FFFDF0"/>
<path fill-rule="evenodd" clip-rule="evenodd" d="M146.5 0.513184L30 160.513H0.000183105L49.6 0.513199L146.5 0.513184ZM52 20.5L53 19.5L58 24.5L63 29.5C63 29.5 64.1295 30.494 64.5 30C64.7343 29.6876 64.5 29 64.5 29L59.5 24L54 18.5L55.5 17L61.5 23L66 27.5C66 27.5 66.7238 27.7762 67 27.5C67.2762 27.2239 67 26.5 67 26.5L62.5 22L56.5 16L58 14.5L64 21L68 25C68 25 69.1295 25.994 69.5 25.5C69.7343 25.1876 69.5 24.5 69.5 24.5L65.5 20L59 13.5L60 12.5C60 12.5 65.1312 15.8503 68 18.5C68.4027 18.872 68.7958 19.2209 69.1766 19.5588L69.1773 19.5594C71.0039 21.1805 72.546 22.5491 73.5 25C74.4235 27.3725 74.5 30.5 74.5 30.5L70.5 34.5C70.5 34.5 65.323 34.4609 62.5 33C60.1089 31.7626 59.0031 30.178 57.6927 28.3001L57.692 28.2992C57.1869 27.5753 56.6513 26.8079 56 26C54.3331 23.9324 52 20.5 52 20.5ZM78.5 42.5C78.5 42.5 83.6215 48.0421 87 51.5C88.8385 53.3818 91.2244 55.7423 92.3799 56.8855L92.3803 56.8858L92.3813 56.8869C92.5324 57.0363 92.6624 57.1649 92.7674 57.2689C92.8703 57.3708 92.9491 57.4491 93 57.5C93.7166 58.2167 96.3954 58.3807 97.5 57C98.4758 55.7802 98.2612 53.7612 97.5 53C97.3972 52.8972 97.1835 52.681 96.8881 52.3821L96.886 52.38C95.7436 51.224 93.384 48.8366 91.5 47C88.2358 43.8181 83 39 83 39C83 39 82.3773 40.7743 81.5 41.5C80.5484 42.2871 78.5 42.5 78.5 42.5ZM55 57C54.0623 56.1963 54 54 54 54C54 54 66.3985 41.9137 74.5 34C82.0065 26.6676 94 15 94 15C94 15 94.9481 14.8036 95.5 15C96.6287 15.4018 96.576 16.6028 96.5224 17.8215C96.5124 18.0487 96.5024 18.2766 96.5 18.5C96.4927 19.182 95.5858 21.6061 94.5 23.5C90.4433 30.5764 81.078 38.5981 80.5 39C79.922 39.4019 79.134 39.921 79 40C77.8107 40.7014 75.5 39.5 75.5 39.5L59 57C59 57 56.186 58.0166 55 57Z" fill="#1E870D"/>
</svg>
